<?xml version="1.0" encoding="UTF-8"?>
<svg width="16px" height="16px" viewBox="0 0 16 16" version="1.1" xmlns="http://www.w3.org/2000/svg" xmlns:xlink="http://www.w3.org/1999/xlink">
    <!-- Generator: Sketch 61.2 (89653) - https://sketch.com -->
    <desc>api</desc>
    <g id="4-组件" stroke="none" stroke-width="1" fill-rule="evenodd">
        <g id="画板" transform="translate(-115.000000, -13.000000)" fill-rule="nonzero">
            <g id="编组-2" transform="translate(114.000000, 12.000000)">
                <rect id="矩形" fill="#000000" opacity="0" x="0" y="0" width="18" height="18"></rect>
                <path d="M1,9 C1,13.42 4.58,17 9,17 C13.42,17 17,13.42 17,9 C17,4.58 13.42,1 9,1 C4.58,1 1,4.58 1,9 Z" id="路径"></path>
                <path d="M5.12055835,11.44 C5.16626423,11.44 5.19238188,11.4138824 5.2054407,11.3747059 L5.41438188,10.6891176 L6.85738188,10.6891176 L7.06632306,11.3747059 C7.07938188,11.4138824 7.10549953,11.44 7.15120541,11.44 L8.22855835,11.44 C8.26773482,11.44 8.28732306,11.4138824 8.27426423,11.3747059 L6.77249953,7.06529412 C6.7594407,7.02611765 6.73332306,7 6.68761717,7 L5.62332306,7 C5.57761717,7 5.55149953,7.02611765 5.5384407,7.06529412 L4.00402894,11.3747059 C3.99097012,11.4138824 4.01055835,11.44 4.04973482,11.44 L5.12055835,11.44 Z M6.57008776,9.73582353 L5.70820541,9.73582353 L6.13914659,8.35158824 L6.15873482,8.35158824 L6.57008776,9.73582353 Z M9.78255835,11.44 C9.82173482,11.44 9.84785247,11.4138824 9.84785247,11.3747059 L9.84785247,9.997 C9.84785247,9.97088235 9.86091129,9.95782353 9.88702894,9.95782353 L10.5399701,9.95782353 C11.6173231,9.95782353 12.1853819,9.32447059 12.1853819,8.47564706 C12.1853819,7.61376471 11.6238525,7 10.5399701,7 L8.76397012,7 C8.72479365,7 8.698676,7.02611765 8.698676,7.06529412 L8.698676,11.3747059 C8.698676,11.4138824 8.72479365,11.44 8.76397012,11.44 L9.78255835,11.44 Z M10.474676,8.98494118 L9.88702894,8.98494118 C9.86091129,8.98494118 9.84785247,8.97188235 9.84785247,8.94576471 L9.84785247,8.01205882 C9.84785247,7.98594118 9.86091129,7.97288235 9.88702894,7.97288235 L10.474676,7.97288235 C10.8337936,7.97288235 11.0362054,8.16876471 11.0362054,8.47564706 C11.0362054,8.78252941 10.8337936,8.98494118 10.474676,8.98494118 Z M13.7785584,11.44 C13.8177348,11.44 13.8438525,11.4138824 13.8438525,11.3747059 L13.8438525,7.06529412 C13.8438525,7.02611765 13.8177348,7 13.7785584,7 L12.7599701,7 C12.7207936,7 12.694676,7.02611765 12.694676,7.06529412 L12.694676,11.3747059 C12.694676,11.4138824 12.7207936,11.44 12.7599701,11.44 L13.7785584,11.44 Z" id="API" fill="#FFFFFF"></path>
            </g>
        </g>
    </g>
</svg>