<?xml version="1.0" encoding="UTF-8"?>
<svg width="18px" height="18px" viewBox="0 0 18 18" version="1.1" xmlns="http://www.w3.org/2000/svg" xmlns:xlink="http://www.w3.org/1999/xlink">
    <!-- Generator: Sketch 60.1 (88133) - https://sketch.com -->
    <desc>关注</desc>
    <g id="网页" stroke="none" stroke-width="1" fill-rule="evenodd">
        <g id="画板" transform="translate(-15.000000, -12.000000)" fill-rule="nonzero">
            <g id="人" transform="translate(15.000000, 12.000000)">
                <rect id="矩形" fill="#000000" opacity="0" x="0" y="0" width="18" height="18"></rect>
                <path d="M9,1 C13.4001762,1 17,4.59982381 17,9.00009275 C17,13.4002689 13.4001762,17.0000927 9,17.0000927 C4.59984699,17.0000927 1,13.4002689 1,9.00009275 C1,4.59982381 4.59984699,1 9,1 Z M9.02509577,4.50859367 C7.61968951,4.50859367 6.48100268,5.64728049 6.48100268,7.05268675 C6.48100268,7.90105973 6.8964695,8.65300337 7.5355703,9.11565901 C7.53146692,9.1177107 7.52736355,9.11873654 7.52326017,9.12078823 C7.06368207,9.31467274 6.65129278,9.59267646 6.29737661,9.94761848 C5.94346043,10.3015347 5.66545671,10.7139239 5.47054636,11.173502 C5.27973938,11.6228217 5.17818082,12.0998392 5.16788148,12.5901926 C5.16689654,12.6363556 5.20382692,12.6743118 5.2499899,12.6743118 L5.86549629,12.6743118 C5.91063343,12.6743118 5.94653797,12.6384073 5.94756381,12.594296 C5.96808069,11.8023444 6.28609233,11.0606592 6.84825483,10.4984967 C7.42990837,9.91684316 8.20236889,9.59677984 9.02509577,9.59677984 C9.84782264,9.59677984 10.6202832,9.91684316 11.2019367,10.4984967 C11.7640992,11.0606592 12.0821108,11.8023444 12.1026277,12.594296 C12.1036536,12.6394331 12.1395581,12.6743118 12.1846952,12.6743118 L12.8002016,12.6743118 C12.8463646,12.6743118 12.883295,12.6363556 12.8823101,12.5901926 C12.8720107,12.0998392 12.7704522,11.6228217 12.5796452,11.1724762 C12.3857607,10.7128981 12.1067311,10.3005088 11.7528149,9.94659264 C11.3988987,9.59267646 10.9865095,9.31467274 10.5269314,9.11976239 C10.522828,9.1177107 10.5187246,9.11668485 10.5146212,9.11463317 C11.153722,8.65300337 11.5691888,7.90105973 11.5691888,7.05268675 C11.5691888,5.64728049 10.430502,4.50859367 9.02509577,4.50859367 Z M9.02509577,5.2882351 C9.49595816,5.2882351 9.93912276,5.47186117 10.2725221,5.80526047 C10.6059213,6.13865976 10.7895474,6.58182437 10.7895474,7.05268675 C10.7895474,7.52354914 10.6059213,7.96671375 10.2725221,8.30011304 C9.93912276,8.63351234 9.49595816,8.81713841 9.02509577,8.81713841 C8.55423338,8.81713841 8.11106878,8.63351234 7.77766948,8.30011304 C7.44427018,7.96671375 7.26064411,7.52354914 7.26064411,7.05268675 C7.26064411,6.58182437 7.44427018,6.13865976 7.77766948,5.80526047 C8.11106878,5.47186117 8.55423338,5.2882351 9.02509577,5.2882351 Z" id="形状" ></path>
            </g>
        </g>
    </g>
</svg>