<?xml version="1.0" encoding="UTF-8"?>
<svg width="16px" height="16px" viewBox="0 0 16 16" version="1.1" xmlns="http://www.w3.org/2000/svg" xmlns:xlink="http://www.w3.org/1999/xlink">
    <!-- Generator: Sketch 56.3 (81716) - https://sketch.com -->
    <desc>icon/16/定时任务</desc>
    
    <g id="icon/16/定时任务" stroke="none" stroke-width="1"  fill-rule="evenodd">
        <g id="clock备份" fill-rule="nonzero">
            <rect id="矩形" opacity="0" x="0" y="0" width="16" height="16"></rect>
            <path d="M8,12.707 C5.519,12.707 3.5,10.688 3.5,8.207 C3.5,5.726 5.519,3.707 8,3.707 C10.481,3.707 12.5,5.726 12.5,8.207 C12.5,10.688 10.481,12.707 8,12.707 L8,12.707 Z M8,2.707 C4.9675,2.707 2.5,5.1745 2.5,8.207 C2.5,9.7985 3.1835,11.23 4.268,12.2355 C4.19026133,12.2570085 4.11911435,12.2975658 4.061,12.3535 L3.1465,13.2685 C3.02029592,13.3947934 2.97105527,13.5788224 3.01732651,13.751265 C3.06359776,13.9237076 3.1983512,14.0583658 3.37082652,14.104515 C3.54330184,14.1506642 3.72729593,14.1012934 3.8535,13.975 L4.768,13.0605 C4.84919654,12.976727 4.89808868,12.8668968 4.906,12.7505 C5.81696775,13.3746908 6.8957016,13.7081778 8,13.707 C9.1145,13.707 10.151,13.372 11.018,12.8 C11.0332143,12.897922 11.0780594,12.9888336 11.1465,13.0605 L12.061,13.9755 C12.1545676,14.0696046 12.2817952,14.1225174 12.4145,14.1225174 C12.5472048,14.1225174 12.6744324,14.0696046 12.768,13.9755 C12.8618885,13.8817159 12.9146433,13.7544546 12.9146433,13.62175 C12.9146433,13.4890454 12.8618885,13.3617841 12.768,13.268 L11.8535,12.3535 C11.8113174,12.3129322 11.7622084,12.2802493 11.7085,12.257 C12.8065,11.251 13.5,9.81 13.5,8.207 C13.5,5.1745 11.0325,2.707 8,2.707 L8,2.707 Z M8.5,8.111 L8.5,5.207 C8.5,4.93085763 8.27614237,4.707 8,4.707 C7.72385763,4.707 7.5,4.93085763 7.5,5.207 L7.5,8.318 C7.5,8.4505 7.5525,8.578 7.6465,8.6715 L9.323,10.348 C9.41656756,10.4421046 9.54379518,10.4950174 9.6765,10.4950174 C9.80920482,10.4950174 9.93643244,10.4421046 10.03,10.348 C10.225191,10.1527501 10.225191,9.83624993 10.03,9.641 L8.5,8.111 Z M4.268,3.06 C4.45266165,2.86307769 4.44766109,2.55512759 4.25670313,2.36430469 C4.06574518,2.17348178 3.75779162,2.16869908 3.561,2.3535 L2.1465,3.768 C2.02020661,3.89429339 1.97088343,4.07837001 2.01711001,4.25088998 C2.0633366,4.42340996 2.19809004,4.5581634 2.37061002,4.60438999 C2.54312999,4.65061657 2.72720661,4.60129339 2.8535,4.475 L4.268,3.06 Z M13.8105,3.5605 L12.3965,2.1465 C12.2702066,2.02020661 12.08613,1.97088343 11.91361,2.01711001 C11.74109,2.0633366 11.6063366,2.19809004 11.56011,2.37061002 C11.5138834,2.54312999 11.5632066,2.72720661 11.6895,2.8535 L13.1035,4.2675 C13.1970676,4.36160462 13.3242952,4.41451743 13.457,4.41451743 C13.5897048,4.41451743 13.7169324,4.36160462 13.8105,4.2675 C13.9043582,4.17380128 13.9571006,4.0466228 13.9571006,3.914 C13.9571006,3.7813772 13.9043582,3.65419872 13.8105,3.5605 L13.8105,3.5605 Z" id="形状" ></path>
        </g>
    </g>
</svg>