<?xml version="1.0" encoding="UTF-8"?>
<svg width="20px" height="20px" viewBox="0 0 20 20" version="1.1" xmlns="http://www.w3.org/2000/svg" xmlns:xlink="http://www.w3.org/1999/xlink">
    <!-- Generator: Sketch 60.1 (88133) - https://sketch.com -->
    <desc>复制</desc>
    <g id="复制" stroke="none" stroke-width="1" fill-rule="evenodd">
        <g id="复制备份-9" fill-rule="nonzero">
            <rect id="矩形" fill="#000000" opacity="0" x="0" y="0" width="20" height="20"></rect>
            <path d="M13.875,15 L3.625,15 C3.34885763,15 3.125,14.7761424 3.125,14.5 L3.125,3 C3.125,2.72385763 3.34885763,2.5 3.625,2.5 L13.875,2.5 C14.1511424,2.5 14.375,2.72385763 14.375,3 L14.375,14.5 C14.375,14.7761424 14.1511424,15 13.875,15 Z M4.375,13.75 L13.125,13.75 L13.125,3.75 L4.375,3.75 L4.375,13.75 Z" id="形状"></path>
            <path d="M16.375,17.5 L7.0625,17.5 C6.78635763,17.5 6.5625,17.2761424 6.5625,17 L6.5625,14.375 L6.5625,14.375 L7.8125,14.375 L7.8125,16.25 L15.625,16.25 L15.625,6.25 L13.4375,6.25 L13.4375,5 L16.375,5 C16.6511424,5 16.875,5.22385763 16.875,5.5 L16.875,17 C16.875,17.2761424 16.6511424,17.5 16.375,17.5 Z" id="路径"></path>
        </g>
    </g>
</svg>