<?xml version="1.0" encoding="UTF-8"?>
<svg width="16px" height="16px" viewBox="0 0 16 16" version="1.1" xmlns="http://www.w3.org/2000/svg" xmlns:xlink="http://www.w3.org/1999/xlink">
    <!-- Generator: Sketch 56.3 (81716) - https://sketch.com -->
    <desc>icon/16/删除</desc>
    
    <g id="icon/16/删除" stroke="none" stroke-width="1"  fill-rule="evenodd">
        <g id="plus-circle备份" fill-rule="nonzero">
            <rect id="矩形" opacity="0" x="0" y="2.84217094e-14" width="16" height="16"></rect>
            <path d="M8,1 C4.134375,1 1,4.134375 1,8 C1,11.865625 4.134375,15 8,15 C11.865625,15 15,11.865625 15,8 C15,4.134375 11.865625,1 8,1 Z M8,13.8125 C4.790625,13.8125 2.1875,11.209375 2.1875,8 C2.1875,4.790625 4.790625,2.1875 8,2.1875 C11.209375,2.1875 13.8125,4.790625 13.8125,8 C13.8125,11.209375 11.209375,13.8125 8,13.8125 Z M10.3864854,9.67937861 L8.70710678,8 L10.3864854,6.32062139 C10.435099,6.2720078 10.435099,6.19245829 10.3864854,6.1438447 L9.8561553,5.61351461 C9.80754171,5.56490102 9.7279922,5.56490102 9.67937861,5.61351461 L8,7.29289322 L6.32062139,5.61351461 C6.2720078,5.56490102 6.19245829,5.56490102 6.1438447,5.61351461 L5.61351461,6.1438447 C5.56490102,6.19245829 5.56490102,6.2720078 5.61351461,6.32062139 L7.29289322,8 L5.61351461,9.67937861 C5.56490102,9.7279922 5.56490102,9.80754171 5.61351461,9.8561553 L6.1438447,10.3864854 C6.19245829,10.435099 6.2720078,10.435099 6.32062139,10.3864854 L8,8.70710678 L9.67937861,10.3864854 C9.7279922,10.435099 9.80754171,10.435099 9.8561553,10.3864854 L10.3864854,9.8561553 C10.435099,9.80754171 10.435099,9.7279922 10.3864854,9.67937861 Z" id="形状" ></path>
        </g>
    </g>
</svg>