<?xml version="1.0" encoding="UTF-8"?>
<svg width="14px" height="14px" viewBox="0 0 14 14" version="1.1" xmlns="http://www.w3.org/2000/svg" xmlns:xlink="http://www.w3.org/1999/xlink">
    <!-- Generator: Sketch 61 (89581) - https://sketch.com -->
    <desc>禁止/删除</desc>
    <g id="0-官网" stroke="none" stroke-width="1" fill-rule="evenodd">
        <g id="创建弹窗" transform="translate(-895.000000, -624.000000)" fill-rule="nonzero">
            <g id="minus-circle备份" transform="translate(894.000000, 623.000000)">
                <rect id="矩形"  opacity="0" x="0" y="0" width="16" height="16"></rect>
                <path d="M8,1 C4.134375,1 1,4.134375 1,8 C1,11.865625 4.134375,15 8,15 C11.865625,15 15,11.865625 15,8 C15,4.134375 11.865625,1 8,1 Z" id="形状"></path>
                <path d="M10.8887701,7.34524838 L5.13877008,7.34524838 C5.07002008,7.34524838 5.01377008,7.42399838 5.01377008,7.52024838 L5.01377008,8.57024838 C5.01377008,8.66649838 5.07002008,8.74524838 5.13877008,8.74524838 L10.8887701,8.74524838 C10.9575201,8.74524838 11.0137701,8.66649838 11.0137701,8.57024838 L11.0137701,7.52024838 C11.0137701,7.42399838 10.9575201,7.34524838 10.8887701,7.34524838 Z" id="路径" fill="#FFFFFF"></path>
            </g>
        </g>
    </g>
</svg>