<?xml version="1.0" encoding="UTF-8"?>
<svg width="16px" height="14px" viewBox="0 0 16 14" version="1.1" xmlns="http://www.w3.org/2000/svg" xmlns:xlink="http://www.w3.org/1999/xlink">
    <!-- Generator: Sketch 64 (93537) - https://sketch.com -->
    <desc>
        icon/首页/下载备份
    </desc>
    <g id="9-小程序" stroke="none" stroke-width="1"  fill-rule="evenodd">
        <g id="画板" transform="translate(-271.000000, -17.000000)" >
            <g id="icon/小程序/3" transform="translate(269.000000, 14.000000)">
                <g id="download">
                    <rect id="矩形" fill-rule="nonzero" opacity="0" x="0" y="0" width="20" height="20"></rect>
                    <path d="M9.87695312,12.9101562 C9.93945312,12.9902344 10.0605469,12.9902344 10.1230469,12.9101562 L12.3105469,10.1425781 C12.390625,10.0410156 12.3183594,9.890625 12.1875,9.890625 L10.7402344,9.890625 L10.7402344,3.28125 C10.7402344,3.1953125 10.6699219,3.125 10.5839844,3.125 L9.41210938,3.125 C9.32617188,3.125 9.25585938,3.1953125 9.25585938,3.28125 L9.25585938,9.88867188 L7.8125,9.88867188 C7.68164062,9.88867188 7.609375,10.0390625 7.68945312,10.140625 L9.87695312,12.9101562 Z M17.1484375,12.2265625 L15.9765625,12.2265625 C15.890625,12.2265625 15.8203125,12.296875 15.8203125,12.3828125 L15.8203125,15.390625 L4.1796875,15.390625 L4.1796875,12.3828125 C4.1796875,12.296875 4.109375,12.2265625 4.0234375,12.2265625 L2.8515625,12.2265625 C2.765625,12.2265625 2.6953125,12.296875 2.6953125,12.3828125 L2.6953125,16.25 C2.6953125,16.5957031 2.97460938,16.875 3.3203125,16.875 L16.6796875,16.875 C17.0253906,16.875 17.3046875,16.5957031 17.3046875,16.25 L17.3046875,12.3828125 C17.3046875,12.296875 17.234375,12.2265625 17.1484375,12.2265625 Z" id="形状" fill-rule="nonzero"></path>
                </g>
            </g>
        </g>
    </g>
</svg>