<?xml version="1.0" encoding="UTF-8"?>
<svg width="16px" height="16px" viewBox="0 0 16 16" version="1.1" xmlns="http://www.w3.org/2000/svg" xmlns:xlink="http://www.w3.org/1999/xlink">
    <!-- Generator: Sketch 56.3 (81716) - https://sketch.com -->
    <desc>icon/16/编辑</desc>
    
    <g id="icon/16/编辑" stroke="none" stroke-width="1"  fill-rule="evenodd">
        <g id="edit-square" fill-rule="nonzero">
            <rect id="矩形" opacity="0" x="0" y="0" width="16" height="16"></rect>
            <path d="M5.5609375,8.3578125 L5.53123392,10.215625 C5.5296875,10.3546875 5.6421875,10.46875 5.78125,10.46875 L5.7875,10.46875 L7.63125,10.4234375 C7.6625,10.421875 7.69375,10.409375 7.715625,10.3875 L14.2140625,3.903125 C14.2625,3.8546875 14.2625,3.775 14.2140625,3.7265625 L12.271875,1.7859375 C12.246875,1.7609375 12.215625,1.75 12.1828125,1.75 C12.15,1.75 12.11875,1.7625 12.09375,1.7859375 L5.596875,8.2703125 C5.575,8.29375 5.5609375,8.325 5.5609375,8.3578125 Z M6.553125,8.7265625 L12.1828125,3.109375 L12.8890625,3.8140625 L7.25625,9.434375 L6.5421875,9.4515625 L6.553125,8.7265625 Z M14.125,8 C14.19375,8 14.25,8.05625 14.25,8.125 L14.25,13.75 C14.25,14.0265625 14.0265625,14.25 13.75,14.25 L2.25,14.25 C1.9734375,14.25 1.75,14.0265625 1.75,13.75 L1.75,2.25 C1.75,1.9734375 1.9734375,1.75 2.25,1.75 L7.875,1.75 C7.94375,1.75 8,1.80625 8,1.875 L8,2.75 C8,2.81875 7.94375,2.875 7.875,2.875 L2.875,2.875 L2.875,13.125 L13.125,13.125 L13.125,8.125 C13.125,8.05625 13.18125,8 13.25,8 L14.125,8 Z" id="形状" ></path>
        </g>
    </g>
</svg>