<?xml version="1.0" encoding="UTF-8"?>
<svg width="22px" height="22px" viewBox="0 0 22 22" version="1.1" xmlns="http://www.w3.org/2000/svg" xmlns:xlink="http://www.w3.org/1999/xlink">
    <!-- Generator: Sketch 56.3 (81716) - https://sketch.com -->
    <desc>icon/导航/智能推送</desc>
    
    <defs>
        <path d="M19.69273,0.934304251 L10.5353501,6.74674943 C10.2085317,6.95419017 9.79134716,6.95438118 9.464339,6.74723977 L0.30168413,0.943209809 C0.65484261,0.376865811 1.28341044,1.31635366e-16 2,0 L18,0 C18.7128269,-1.30944177e-16 19.338554,0.372918516 19.69273,0.934304251 Z M20,2.5361312 L20,14 C20,15.1045695 19.1045695,16 18,16 L2,16 C0.8954305,16 1.3527075e-16,15.1045695 0,14 L0,2.53138591 L9.46378135,8.54660013 C9.79102713,8.75459875 10.2090178,8.7546694 10.5363338,8.54678142 L20,2.5361312 Z" id="path-1"></path>
    </defs>
    <g id="icon/导航/智能推送" stroke="none" stroke-width="1" fill-rule="evenodd">
        <g id="路径-3" transform="translate(1.000000, 3.000000)">
            <mask id="mask-2">
                <use xlink:href="#path-1"></use>
            </mask>
            <use id="形状结合" xlink:href="#path-1"></use>
            <path d="M-1,1 L9.46312451,7.65835196 C9.79069091,7.86680331 10.2093091,7.86680331 10.5368755,7.65835196 L21,1" stroke="#FFFFFF" stroke-width="1.5" mask="url(#mask-2)"></path>
        </g>
    </g>
</svg>