<?xml version="1.0" encoding="UTF-8"?>
<svg width="16px" height="16px" viewBox="0 0 16 16" version="1.1" xmlns="http://www.w3.org/2000/svg" xmlns:xlink="http://www.w3.org/1999/xlink">
    <!-- Generator: Sketch 61 (89581) - https://sketch.com -->
    <desc>插件来源</desc>
    <g id="0-官网" stroke="none" stroke-width="1" fill-rule="evenodd">
        <g id="画板" transform="translate(-85.000000, -13.000000)">
            <g id="编组" transform="translate(84.000000, 12.000000)">
                <rect id="矩形" fill="#000000" fill-rule="nonzero" opacity="0" x="0" y="0" width="18" height="18"></rect>
                <path d="M1,9 C1,13.42 4.58,17 9,17 C13.42,17 17,13.42 17,9 C17,4.58 13.42,1 9,1 C4.58,1 1,4.58 1,9 Z" id="路径" fill-rule="nonzero"></path>
                <path d="M8.98784308,4.5950109 C9.42967088,4.5950109 9.78784308,4.9531831 9.78784308,5.3950109 L9.78784308,6.1940109 L11.1878431,6.1950109 C11.7401278,6.1950109 12.1878431,6.64272615 12.1878431,7.1950109 L12.1868431,8.5950109 L12.9878431,8.5950109 C13.4296709,8.5950109 13.7878431,8.9531831 13.7878431,9.3950109 C13.7878431,9.8368387 13.4296709,10.1950109 12.9878431,10.1950109 L12.1868431,10.1950109 L12.1878431,11.5950109 C12.1878431,12.1472957 11.7401278,12.5950109 11.1878431,12.5950109 L9.78784308,12.5950109 L9.78784308,11.7950109 C9.78784308,11.3531831 9.42967088,10.9950109 8.98784308,10.9950109 C8.58000203,10.9950109 8.2434415,11.300199 8.19407621,11.6946606 L8.18784308,11.7950109 L8.18784308,12.5950109 L6.78784308,12.5950109 C6.23555833,12.5950109 5.78784308,12.1472957 5.78784308,11.5950109 L5.78784308,10.1950109 L6.58784308,10.1950109 C6.99568412,10.1950109 7.33224466,9.88982275 7.38160994,9.4953612 L7.38784308,9.3950109 C7.38784308,8.98716985 7.08265493,8.65060932 6.68819338,8.60124404 L6.58784308,8.5950109 L5.78784308,8.5950109 L5.78784308,7.1950109 C5.78784308,6.64272615 6.23555833,6.1950109 6.78784308,6.1950109 L8.18784308,6.1940109 L8.18784308,5.3950109 C8.18784308,4.9531831 8.54601528,4.5950109 8.98784308,4.5950109 Z" id="路径" fill="#FFFFFF"></path>
            </g>
        </g>
    </g>
</svg>