<?xml version="1.0" encoding="UTF-8"?>
<svg width="22px" height="22px" viewBox="0 0 22 22" version="1.1" xmlns="http://www.w3.org/2000/svg" xmlns:xlink="http://www.w3.org/1999/xlink">
    <!-- Generator: Sketch 56.3 (81716) - https://sketch.com -->
    <desc>icon/导航/首页</desc>
    
    <g id="icon/导航/首页" stroke="none" stroke-width="1" fill-rule="evenodd">
        <g id="home" fill-rule="nonzero">
            <rect id="矩形" opacity="0" x="0" y="0" width="22" height="22"></rect>
            <path d="M13.2,19.765625 L13.2,14.2 C13.2,13.6477153 12.7522847,13.2 12.2,13.2 L9.8,13.2 C9.24771525,13.2 8.8,13.6477153 8.8,14.2 L8.8,19.765625 L4.56855469,19.765625 C4.01626994,19.765625 3.56855469,19.3179097 3.56855469,18.765625 L3.56855469,13.1978516 L2.65546875,13.1978516 C1.89921875,13.1978516 1.26972656,12.5941406 1.26108523,11.8378906 C1.25898437,11.4640625 1.40078125,11.1138672 1.66503906,10.8496094 L10.3022646,2.43688987 C10.6905498,2.05869727 11.3094502,2.05869727 11.6977354,2.43688987 L20.3349609,10.8496094 C20.5949219,11.1095703 20.7388672,11.4554687 20.7388672,11.8207031 C20.7388672,12.1880859 20.5970703,12.5339844 20.3371094,12.7939453 C20.0771484,13.0539062 19.73125,13.1978516 19.3638672,13.1978516 L18.4314453,13.1978516 L18.4314453,18.765625 C18.4314453,19.3179097 17.9837301,19.765625 17.4314453,19.765625 L13.2,19.765625 Z" id="形状结合"></path>
        </g>
    </g>
</svg>