<?xml version="1.0" encoding="UTF-8"?>
<svg width="20px" height="20px" viewBox="0 0 20 20" version="1.1" xmlns="http://www.w3.org/2000/svg" xmlns:xlink="http://www.w3.org/1999/xlink">
    <!-- Generator: Sketch 56.3 (81716) - https://sketch.com -->
    <desc>icon/侧导航/权限管理</desc>
    
    <g id="icon/侧导航/权限管理" stroke="none" stroke-width="1" fill-rule="evenodd">
        <g id="key" fill-rule="nonzero">
            <rect id="矩形" opacity="0" x="0" y="0" width="20" height="20"></rect>
            <path d="M11.875,2.1875 C8.59570313,2.1875 5.9375,4.84570313 5.9375,8.125 C5.9375,9.49804688 6.40429688,10.7617188 7.18554688,11.7675781 L6.3828125,12.5703125 L5.16601563,11.3535156 C5.10546875,11.2929688 5.00585938,11.2929688 4.94335938,11.3535156 L4.16601563,12.1308594 C4.10546875,12.1914063 4.10546875,12.2910156 4.16601563,12.3535156 L5.3828125,13.5703125 L4.50585938,14.4472656 L3.2890625,13.2304688 C3.22851563,13.1699219 3.12890625,13.1699219 3.06640625,13.2304688 L2.2890625,14.0078125 C2.22851563,14.0683594 2.22851563,14.1679688 2.2890625,14.2304688 L3.50585938,15.4472656 L2.23046875,16.7226562 C2.16992188,16.7832031 2.16992188,16.8828125 2.23046875,16.9433594 L3.05664063,17.7695312 C3.1171875,17.8300781 3.21679688,17.8300781 3.27734375,17.7695312 L8.23046875,12.8164062 C9.23828125,13.5957031 10.5019531,14.0625 11.875,14.0625 C15.1542969,14.0625 17.8125,11.4042969 17.8125,8.125 C17.8125,4.84570313 15.1542969,2.1875 11.875,2.1875 Z M15.0234375,11.2734375 C14.1835938,12.1152344 13.0644531,12.578125 11.875,12.578125 C10.6855469,12.578125 9.56640625,12.1152344 8.7265625,11.2734375 C7.88476563,10.4335938 7.421875,9.31445312 7.421875,8.125 C7.421875,6.93554688 7.88476563,5.81640625 8.7265625,4.9765625 C9.56640625,4.13476563 10.6855469,3.671875 11.875,3.671875 C13.0644531,3.671875 14.1835938,4.13476563 15.0234375,4.9765625 C15.8652344,5.81640625 16.328125,6.93554688 16.328125,8.125 C16.328125,9.31445312 15.8652344,10.4335938 15.0234375,11.2734375 Z" id="形状"></path>
        </g>
    </g>
</svg>