<?xml version="1.0" encoding="UTF-8"?>
<svg width="20px" height="20px" viewBox="0 0 20 20" version="1.1" xmlns="http://www.w3.org/2000/svg" xmlns:xlink="http://www.w3.org/1999/xlink">
    <!-- Generator: Sketch 56.3 (81716) - https://sketch.com -->
    <desc>icon/20/成员</desc>
    
    <g id="icon/20/成员" stroke="none" stroke-width="1" fill-rule="evenodd">
        <g id="team" fill-rule="nonzero">
            <rect id="矩形" opacity="0" x="0" y="0" width="20" height="20"></rect>
            <path d="M16.0976562,13.6699219 C15.6015625,13.1738281 15.0292969,12.7773438 14.4101562,12.4902344 C15.2949219,11.7734375 15.859375,10.6796875 15.859375,9.453125 C15.859375,7.2890625 14.0546875,5.51367188 11.890625,5.546875 C9.75976562,5.58007813 8.04296875,7.31640625 8.04296875,9.453125 C8.04296875,10.6796875 8.609375,11.7734375 9.4921875,12.4902344 C8.87304687,12.7773438 8.30273437,13.171875 7.8046875,13.6699219 C6.73828125,14.7382812 6.1328125,16.1484375 6.09371027,17.6523437 C6.09179687,17.7402344 6.16210938,17.8125 6.25,17.8125 L7.34375,17.8125 C7.42773437,17.8125 7.49804687,17.7460938 7.5,17.6621094 C7.53710937,16.5292969 7.99609375,15.46875 8.80273437,14.6640625 C9.64453125,13.8222656 10.7636719,13.359375 11.953125,13.359375 C13.1425781,13.359375 14.2617187,13.8222656 15.1035156,14.6640625 C15.9082031,15.46875 16.3671875,16.5292969 16.40625,17.6621094 C16.4082031,17.7460937 16.4785156,17.8125 16.5625,17.8125 L17.65625,17.8125 C17.7441406,17.8125 17.8144531,17.7402344 17.8125397,17.6523437 C17.7734375,16.1484375 17.1679687,14.7382812 16.0976562,13.6699219 Z M11.953125,11.953125 C11.2851562,11.953125 10.65625,11.6933594 10.1855469,11.2207031 C9.70703125,10.7421875 9.4453125,10.1054688 9.453125,9.42773438 C9.45898437,8.78710938 9.71484375,8.16796875 10.1621094,7.70898438 C10.6308594,7.22851562 11.2578125,6.9609375 11.9277344,6.953125 C12.5898437,6.94726562 13.2324219,7.20507812 13.7050781,7.66796875 C14.1894531,8.14257813 14.4550781,8.77734375 14.4550781,9.453125 C14.4550781,10.1210938 14.1953125,10.7480469 13.7226562,11.2207031 C13.25,11.6933594 12.6210937,11.953125 11.953125,11.953125 L11.953125,11.953125 Z M7.06054688,9.96875 C7.04296875,9.79882813 7.03320312,9.62695313 7.03320312,9.453125 C7.03320312,9.14257813 7.0625,8.83984375 7.1171875,8.54492188 C7.13085938,8.47460938 7.09375,8.40234375 7.02929688,8.37304688 C6.76367188,8.25390625 6.51953125,8.08984375 6.30859375,7.8828125 C5.8046875,7.390625 5.53320313,6.72460938 5.55273438,6.01953125 C5.5703125,5.39257812 5.82226563,4.796875 6.26171875,4.34765625 C6.74414062,3.85351562 7.39257812,3.58398437 8.08203125,3.59179687 C8.70507812,3.59765625 9.30664062,3.83789062 9.76171875,4.26367187 C9.91601562,4.40820312 10.0488281,4.56835937 10.1601562,4.74023438 C10.1992188,4.80078125 10.2753906,4.82617187 10.3417969,4.80273437 C10.6855469,4.68359375 11.0488281,4.59960937 11.421875,4.56054687 C11.53125,4.54882812 11.59375,4.43164062 11.5449219,4.33398437 C10.9101562,3.078125 9.61328125,2.2109375 8.11328125,2.1875 C5.94726562,2.15429687 4.14257812,3.9296875 4.14257812,6.09179687 C4.14257812,7.31835938 4.70703125,8.41210938 5.59179687,9.12890625 C4.97070312,9.41601562 4.3984375,9.8125 3.90234375,10.3085938 C2.83203125,11.3769531 2.2265625,12.7871094 2.18746027,14.2929688 C2.18554687,14.3808594 2.25585937,14.453125 2.34375,14.453125 L3.43945312,14.453125 C3.5234375,14.453125 3.59375,14.3867188 3.59570312,14.3027344 C3.6328125,13.1699219 4.09179687,12.109375 4.8984375,11.3046875 C5.47265625,10.7304688 6.17578125,10.3320313 6.94335937,10.1386719 C7.01953125,10.1191406 7.0703125,10.046875 7.06054687,9.96875 L7.06054688,9.96875 Z" id="形状"></path>
        </g>
    </g>
</svg>