<?xml version="1.0" encoding="UTF-8"?>
<svg width="22px" height="22px" viewBox="0 0 22 22" version="1.1" xmlns="http://www.w3.org/2000/svg" xmlns:xlink="http://www.w3.org/1999/xlink">
    <!-- Generator: Sketch 56.3 (81716) - https://sketch.com -->
    <desc>icon/导航/通知</desc>
    
    <g id="icon/导航/通知" stroke="none" stroke-width="1" fill-rule="evenodd">
        <g id="bell" fill-rule="nonzero">
            <rect id="矩形" opacity="0" x="0" y="0" width="22" height="22"></rect>
            <path d="M17.53125,16.5 L17.015625,16.5 L17.015625,9.1953125 C17.015625,6.16386719 14.7748047,3.65878906 11.859375,3.24199219 L11.859375,2.40625 C11.859375,1.93144531 11.4748047,1.546875 11,1.546875 C10.5251953,1.546875 10.140625,1.93144531 10.140625,2.40625 L10.140625,3.24199219 C7.22519531,3.65878906 4.984375,6.16386719 4.984375,9.1953125 L4.984375,16.5 L4.46875,16.5 C4.08847656,16.5 3.78125,16.8072266 3.78125,17.1875 L3.78125,17.875 C3.78125,17.9695312 3.85859375,18.046875 3.953125,18.046875 L8.59375,18.046875 C8.59375,19.3746094 9.67226562,20.453125 11,20.453125 C12.3277344,20.453125 13.40625,19.3746094 13.40625,18.046875 L18.046875,18.046875 C18.1414063,18.046875 18.21875,17.9695312 18.21875,17.875 L18.21875,17.1875 C18.21875,16.8072266 17.9115234,16.5 17.53125,16.5 Z M11,19.078125 C10.4306641,19.078125 9.96875,18.6162109 9.96875,18.046875 L12.03125,18.046875 C12.03125,18.6162109 11.5693359,19.078125 11,19.078125 Z M6.53125,16.5 L6.53125,9.1953125 C6.53125,8.00078125 6.9953125,6.87929687 7.83964844,6.03496094 C8.68398437,5.190625 9.80546875,4.7265625 11,4.7265625 C12.1945313,4.7265625 13.3160156,5.190625 14.1603516,6.03496094 C15.0046875,6.87929687 15.46875,8.00078125 15.46875,9.1953125 L15.46875,16.5 L6.53125,16.5 Z" id="形状"></path>
        </g>
    </g>
</svg>