<?xml version="1.0" encoding="UTF-8"?>
<svg width="18px" height="18px" viewBox="0 0 18 18" version="1.1" xmlns="http://www.w3.org/2000/svg" xmlns:xlink="http://www.w3.org/1999/xlink">
    <!-- Generator: Sketch 60.1 (88133) - https://sketch.com -->
    <desc>网页登录</desc>
    <g id="网页" stroke="none" stroke-width="1"  fill-rule="evenodd">
        <g id="画板" transform="translate(-39.000000, -12.000000)" fill-rule="nonzero">
            <g id="电脑" transform="translate(39.000000, 12.000000)">
                <rect id="矩形" fill="#000000" opacity="0" x="0" y="0" width="18" height="18"></rect>
                <path d="M9,1 C13.4001762,1 17,4.59982381 17,9.00009275 C17,13.4002689 13.4001762,17.0000927 9,17.0000927 C4.59984699,17.0000927 1,13.4002689 1,9.00009275 C1,4.59982381 4.59984699,1 9,1 Z M13.0360832,5.51219397 L5.02840275,5.51219397 C4.85804705,5.51219397 4.72041504,5.64982598 4.72041504,5.82018169 L4.72041504,10.5939912 C4.72041504,10.7643469 4.85804705,10.9019789 5.02840275,10.9019789 L8.6569519,10.9019789 L8.6569519,11.9799359 L7.03032287,11.9799359 C6.94562625,11.9799359 6.87632902,12.0492331 6.87632902,12.1339298 L6.87632902,12.6264954 C6.87632902,12.6688437 6.91097763,12.7034923 6.95332594,12.7034923 L11.11116,12.7034923 C11.1535084,12.7034923 11.188157,12.6688437 11.188157,12.6264954 L11.188157,12.1339298 C11.188157,12.0492331 11.1188597,11.9799359 11.0341631,11.9799359 L9.39471436,11.9799359 L9.39471436,10.9019789 L13.0360832,10.9019789 C13.2064389,10.9019789 13.344071,10.7643469 13.344071,10.5939912 L13.344071,5.82018169 C13.344071,5.64982598 13.2064389,5.51219397 13.0360832,5.51219397 Z M12.6076709,6.25470038 L12.6076709,10.1686908 L5.43540586,10.1686908 L5.43540586,6.25470038 L12.6076709,6.25470038 Z" id="路径-2" ></path>
            </g>
        </g>
    </g>
</svg>