<?xml version="1.0" encoding="UTF-8"?>
<svg width="16px" height="16px" viewBox="0 0 16 16" version="1.1" xmlns="http://www.w3.org/2000/svg" xmlns:xlink="http://www.w3.org/1999/xlink">
    <!-- Generator: Sketch 56.3 (81716) - https://sketch.com -->
    <desc>icon/16/二维码</desc>
    
    <g id="icon/16/二维码" stroke="none" stroke-width="1"  fill-rule="evenodd">
        <g id="qrcode备份" fill-rule="nonzero">
            <rect id="矩形" opacity="0" x="0" y="0" width="16" height="16"></rect>
            <path d="M7.3125,2 L2.5,2 C2.2234375,2 2,2.2234375 2,2.5 L2,7.3125 C2,7.38125 2.05625,7.4375 2.125,7.4375 L7.3125,7.4375 C7.38125,7.4375 7.4375,7.38125 7.4375,7.3125 L7.4375,2.125 C7.4375,2.05625 7.38125,2 7.3125,2 Z M6.4375,6.4375 L3,6.4375 L3,3 L6.4375,3 L6.4375,6.4375 Z M4.28125,5.28125 L5.15625,5.28125 C5.225,5.28125 5.28125,5.225 5.28125,5.15625 L5.28125,4.28125 C5.28125,4.2125 5.225,4.15625 5.15625,4.15625 L4.28125,4.15625 C4.2125,4.15625 4.15625,4.2125 4.15625,4.28125 L4.15625,5.15625 C4.15625,5.225 4.2125,5.28125 4.28125,5.28125 Z M7.3125,8.5625 L2.125,8.5625 C2.05625,8.5625 2,8.61875 2,8.6875 L2,13.5 C2,13.7765625 2.2234375,14 2.5,14 L7.3125,14 C7.38125,14 7.4375,13.94375 7.4375,13.875 L7.4375,8.6875 C7.4375,8.61875 7.38125,8.5625 7.3125,8.5625 Z M6.4375,13 L3,13 L3,9.5625 L6.4375,9.5625 L6.4375,13 Z M4.28125,11.84375 L5.15625,11.84375 C5.225,11.84375 5.28125,11.7875 5.28125,11.71875 L5.28125,10.84375 C5.28125,10.775 5.225,10.71875 5.15625,10.71875 L4.28125,10.71875 C4.2125,10.71875 4.15625,10.775 4.15625,10.84375 L4.15625,11.71875 C4.15625,11.7875 4.2125,11.84375 4.28125,11.84375 Z M13.5,2 L8.6875,2 C8.61875,2 8.5625,2.05625 8.5625,2.125 L8.5625,7.3125 C8.5625,7.38125 8.61875,7.4375 8.6875,7.4375 L13.875,7.4375 C13.94375,7.4375 14,7.38125 14,7.3125 L14,2.5 C14,2.2234375 13.7765625,2 13.5,2 Z M13,6.4375 L9.5625,6.4375 L9.5625,3 L13,3 L13,6.4375 Z M10.84375,5.28125 L11.71875,5.28125 C11.7875,5.28125 11.84375,5.225 11.84375,5.15625 L11.84375,4.28125 C11.84375,4.2125 11.7875,4.15625 11.71875,4.15625 L10.84375,4.15625 C10.775,4.15625 10.71875,4.2125 10.71875,4.28125 L10.71875,5.15625 C10.71875,5.225 10.775,5.28125 10.84375,5.28125 Z M13.875,8.5625 L13.125,8.5625 C13.05625,8.5625 13,8.61875 13,8.6875 L13,10.78125 L11.78125,10.78125 L11.78125,8.6875 C11.78125,8.61875 11.725,8.5625 11.65625,8.5625 L8.6875,8.5625 C8.61875,8.5625 8.5625,8.61875 8.5625,8.6875 L8.5625,13.875 C8.5625,13.94375 8.61875,14 8.6875,14 L9.4375,14 C9.50625,14 9.5625,13.94375 9.5625,13.875 L9.5625,10.0625 L10.78125,10.0625 L10.78125,11.65625 C10.78125,11.725 10.8375,11.78125 10.90625,11.78125 L13.875,11.78125 C13.94375,11.78125 14,11.725 14,11.65625 L14,8.6875 C14,8.61875 13.94375,8.5625 13.875,8.5625 Z M11.65625,13 L10.90625,13 C10.8375,13 10.78125,13.05625 10.78125,13.125 L10.78125,13.875 C10.78125,13.94375 10.8375,14 10.90625,14 L11.65625,14 C11.725,14 11.78125,13.94375 11.78125,13.875 L11.78125,13.125 C11.78125,13.05625 11.725,13 11.65625,13 Z M13.875,13 L13.125,13 C13.05625,13 13,13.05625 13,13.125 L13,13.875 C13,13.94375 13.05625,14 13.125,14 L13.875,14 C13.94375,14 14,13.94375 14,13.875 L14,13.125 C14,13.05625 13.94375,13 13.875,13 Z" id="形状" ></path>
        </g>
    </g>
</svg>