<?xml version="1.0" encoding="UTF-8"?>
<svg width="20px" height="20px" viewBox="0 0 20 20" version="1.1" xmlns="http://www.w3.org/2000/svg" xmlns:xlink="http://www.w3.org/1999/xlink">
    <!-- Generator: Sketch 56.3 (81716) - https://sketch.com -->
    <desc>icon/20/报表</desc>
    
    <g id="icon/20/报表" stroke="none" stroke-width="1" fill-rule="evenodd">
        <g id="pie-chart" fill-rule="nonzero">
            <rect id="矩形" opacity="0" x="0" y="0" width="20" height="20"></rect>
            <path d="M17.2994847,9.61619845 L10.3838085,9.61619845 L10.3838085,2.70052805 C10.3838085,2.61553099 10.3142654,2.54598793 10.2292683,2.54598793 L9.72701248,2.54598793 C8.6838658,2.54598793 7.67162716,2.75075359 6.71927287,3.15255791 C5.79975839,3.54083996 4.97296805,4.09911615 4.26401466,4.80806895 C3.55506126,5.51702175 2.99678461,6.3438114 2.60850223,7.26332512 C2.20476583,8.21761036 2,9.22984815 2,10.272994 C2,11.3161398 2.20476583,12.3283776 2.60657048,13.2807311 C2.99485286,14.2002448 3.55312951,15.0270344 4.2620829,15.7359872 C4.9710363,16.44494 5.79782663,17.0032162 6.71734112,17.3914983 C7.67162716,17.7952343 8.6838658,18 9.72701248,18 C10.7701592,18 11.7823978,17.7952343 12.7347521,17.39343 C13.6542666,17.005148 14.4810569,16.4468718 15.1900103,15.737919 C15.8989637,15.0289662 16.4572404,14.2021765 16.8455227,13.2826628 C17.2492591,12.3283776 17.454025,11.3161398 17.454025,10.272994 L17.454025,9.77073857 C17.454025,9.68574151 17.3844818,9.61619845 17.2994847,9.61619845 Z M14.2415195,14.828064 C13.0322421,16.0276817 11.3999107,16.694136 9.69610443,16.6864754 C7.99422993,16.678682 6.39473835,16.0122277 5.19125615,14.8087465 C3.98004695,13.5975383 3.31359212,11.9864576 3.31359212,10.272994 C3.31359212,8.55953038 3.98004695,6.94844962 5.19125615,5.73724142 C6.24599336,4.6825051 7.6040158,4.03923185 9.07021642,3.89241873 L9.07021642,10.9297895 L16.107593,10.9297895 C15.958848,12.4037159 15.309779,13.7694642 14.2415195,14.828064 Z M18.9994275,8.54214461 L18.9492019,7.99739069 C18.7850029,6.21824755 17.9949158,4.53955549 16.7238223,3.2723265 C15.4527287,2.00316576 13.7721035,1.21501114 11.9871636,1.05081226 L11.4404775,1.00058673 C11.3496851,0.99285972 11.272415,1.06240277 11.272415,1.15319509 L11.272415,8.57305264 C11.272415,8.65804971 11.3419581,8.72759276 11.4269552,8.72759276 L18.8448872,8.70827524 C18.9356796,8.70827524 19.0071545,8.63100518 18.9994275,8.54214461 Z M12.5821436,7.41786524 L12.5821436,2.46099087 C13.791421,2.71405031 14.9137696,3.31482503 15.7965808,4.19570372 C16.679392,5.07658241 17.2840307,6.19699828 17.5351586,7.40434298 L12.5821436,7.41786524 Z" id="形状"></path>
        </g>
    </g>
</svg>