<?xml version="1.0" encoding="UTF-8"?>
<svg width="16px" height="16px" viewBox="0 0 16 16" version="1.1" xmlns="http://www.w3.org/2000/svg" xmlns:xlink="http://www.w3.org/1999/xlink">
    <!-- Generator: Sketch 56.3 (81716) - https://sketch.com -->
    <desc>icon/16/搜索</desc>
    
    <g id="icon/16/搜索" stroke="none" stroke-width="1"  fill-rule="evenodd">
        <g id="zoom-out" fill-rule="nonzero">
            <rect id="矩形" opacity="0" x="0" y="0" width="16" height="16"></rect>
            <path d="M14.390625,13.546875 L12.109375,11.265625 C14.0171875,8.9390625 13.884375,5.4921875 11.703125,3.3125 C9.390625,0.9984375 5.634375,0.9984375 3.3125,3.3125 C0.9984375,5.634375 0.9984375,9.390625 3.3125,11.703125 C5.4921875,13.884375 8.9390625,14.0171875 11.265625,12.109375 L13.546875,14.390625 C13.596875,14.434375 13.6765625,14.434375 13.71875,14.390625 L14.390625,13.71875 C14.434375,13.6765625 14.434375,13.596875 14.390625,13.546875 Z M10.875,10.875 C9.01875,12.7296875 6.0125,12.7296875 4.15625,10.875 C2.3015625,9.01875 2.3015625,6.0125 4.15625,4.15625 C6.0125,2.3015625 9.01875,2.3015625 10.875,4.15625 C12.7296875,6.0125 12.7296875,9.01875 10.875,10.875 Z" id="形状" ></path>
        </g>
    </g>
</svg>