<?xml version="1.0" encoding="UTF-8"?>
<svg width="20px" height="20px" viewBox="0 0 20 20" version="1.1" xmlns="http://www.w3.org/2000/svg" xmlns:xlink="http://www.w3.org/1999/xlink">
    <!-- Generator: Sketch 56.3 (81716) - https://sketch.com -->
    <desc>icon/侧导航/积分商城</desc>
    
    <g id="icon/侧导航/积分商城" stroke="none" stroke-width="1" fill-rule="evenodd">
        <g id="shop" fill-rule="nonzero">
            <rect id="矩形" opacity="0" x="0" y="0" width="20" height="20"></rect>
            <path d="M17.2265625,5.31445312 L17.2265625,2.8125 C17.2265625,2.46679688 16.9472656,2.1875 16.6015625,2.1875 L3.3984375,2.1875 C3.05273438,2.1875 2.7734375,2.46679688 2.7734375,2.8125 L2.7734375,5.31445312 C2.44726562,5.33398438 2.1875,5.60546875 2.1875,5.9375 L2.1875,8.50976562 C2.1875,8.98632812 2.28125,9.44921875 2.46875,9.88476562 C2.55273438,10.0839844 2.65625,10.2714844 2.7734375,10.4492188 L2.7734375,17.1875 C2.7734375,17.53125 3.05273438,17.8125 3.3984375,17.8125 L16.6015625,17.8125 C16.9472656,17.8125 17.2265625,17.5332031 17.2265625,17.1875 L17.2265625,10.4492188 C17.3457031,10.2714844 17.4472656,10.0820313 17.53125,9.88476562 C17.7167969,9.44921875 17.8125,8.98632812 17.8125,8.50976562 L17.8125,5.9375 C17.8125,5.60546875 17.5527344,5.33398438 17.2265625,5.31445312 Z M4.1796875,3.59375 L15.8203125,3.59375 L15.8203125,5.3125 L4.1796875,5.3125 L4.1796875,3.59375 Z M11.25,16.4082031 L8.75,16.4082031 L8.75,14.375 L11.25,14.375 L11.25,16.4082031 Z M15.8203125,16.4082031 L12.5,16.4082031 L12.5,13.75 C12.5,13.4042969 12.2207031,13.125 11.875,13.125 L8.125,13.125 C7.77929688,13.125 7.5,13.4042969 7.5,13.75 L7.5,16.4082031 L4.1796875,16.4082031 L4.1796875,11.6777344 C4.23632812,11.7050781 4.29492188,11.7324219 4.35546875,11.7558594 C4.79101562,11.9394531 5.25390625,12.03125 5.73046875,12.03125 C6.20703125,12.03125 6.66796875,11.9394531 7.10546875,11.7558594 C7.375,11.6425781 7.62890625,11.4980469 7.86132812,11.3242188 C7.86523437,11.3222656 7.86914062,11.3222656 7.87304688,11.3242188 C8.10546875,11.4980469 8.35742188,11.6425781 8.62890625,11.7558594 C9.06445312,11.9394531 9.52734375,12.03125 10.0039062,12.03125 C10.4804687,12.03125 10.9414062,11.9394531 11.3789062,11.7558594 C11.6484375,11.6425781 11.9023437,11.4980469 12.1347656,11.3242188 C12.1386719,11.3222656 12.1425781,11.3222656 12.1464844,11.3242188 C12.3789062,11.4980469 12.6308594,11.6425781 12.9023438,11.7558594 C13.3378906,11.9394531 13.8007812,12.03125 14.2773438,12.03125 C14.7539062,12.03125 15.2148438,11.9394531 15.6523438,11.7558594 C15.7109375,11.7304688 15.7695312,11.7050781 15.828125,11.6777344 L15.828125,16.4082031 L15.8203125,16.4082031 Z M16.40625,8.50976562 C16.40625,9.67773438 15.4492188,10.625 14.2714844,10.625 C13.4746094,10.625 12.7792969,10.1933594 12.4121094,9.55273438 C12.3554688,9.45507812 12.2539062,9.39453125 12.140625,9.39453125 L12.1289062,9.39453125 C12.0175781,9.39453125 11.9140625,9.45507812 11.8574219,9.55273438 C11.4921875,10.1933594 10.796875,10.625 10,10.625 C9.20507812,10.625 8.51171875,10.1953125 8.14453125,9.55664062 C8.0859375,9.45703125 7.98046875,9.39453125 7.86523438,9.39453125 C7.75,9.39453125 7.64257812,9.45703125 7.5859375,9.55664062 C7.21679688,10.1953125 6.5234375,10.625 5.72851562,10.625 C4.55078125,10.625 3.59375,9.67773438 3.59375,8.50976562 L3.59375,6.72851562 C3.59375,6.72265625 3.59765625,6.71875 3.60351562,6.71875 L16.3964844,6.71875 C16.4023438,6.71875 16.40625,6.72265625 16.40625,6.72851562 L16.40625,8.50976562 L16.40625,8.50976562 Z" id="形状" ></path>
        </g>
    </g>
</svg>