<?xml version="1.0" encoding="UTF-8"?>
<svg width="22px" height="22px" viewBox="0 0 22 22" version="1.1" xmlns="http://www.w3.org/2000/svg" xmlns:xlink="http://www.w3.org/1999/xlink">
    <!-- Generator: Sketch 56.3 (81716) - https://sketch.com -->
    <desc>icon/导航/微信粉丝</desc>
    
    <g id="icon/导航/微信粉丝" stroke="none" stroke-width="1" fill="none" fill-rule="evenodd">
        <g id="smile" transform="translate(1.000000, 1.000000)" fill-rule="nonzero">
            <rect id="矩形" fill="#000000" opacity="0" x="0" y="0" width="20" height="20"></rect>
            <path d="M10,1.25 C14.8320312,1.25 18.75,5.16796875 18.75,10 C18.75,14.8320312 14.8320312,18.75 10,18.75 C5.16796875,18.75 1.25,14.8320312 1.25,10 C1.25,5.16796875 5.16796875,1.25 10,1.25 Z M5.625,8.04904514 C5.625,8.66269486 6.12246139,9.16015625 6.73611111,9.16015625 C7.34976083,9.16015625 7.84722222,8.66269486 7.84722222,8.04904514 C7.84722222,7.43539542 7.34976083,6.93793403 6.73611111,6.93793403 C6.12246139,6.93793403 5.625,7.43539542 5.625,8.04904514 Z M12.1527778,8.04904514 C12.1527778,8.66269486 12.6502392,9.16015625 13.2638889,9.16015625 C13.8775386,9.16015625 14.375,8.66269486 14.375,8.04904514 C14.375,7.43539542 13.8775386,6.93793403 13.2638889,6.93793403 C12.6502392,6.93793403 12.1527778,7.43539542 12.1527778,8.04904514 Z M6.89138533,10.8923788 C6.2294553,11.2403764 6.60632777,12.0403578 6.73611111,12.2456255 C6.86589445,12.4508933 7.93409875,14.104037 10,14.104037 C11.3772675,14.104037 12.4652305,13.4845665 13.2638889,12.2456255 C13.6117995,11.580576 13.539242,11.1294938 13.0462163,10.8923788 C12.5531906,10.6552639 12.2007168,10.8406481 11.9887948,11.4485316 C11.5142715,12.2191629 10.8513399,12.6044786 10,12.6044786 C9.14866007,12.6044786 8.49181309,12.1876929 8.02945907,11.3541216 C7.71202993,10.8142947 7.33267202,10.6603804 6.89138533,10.8923788 Z" id="形状结合" fill="currentColor"></path>
        </g>
    </g>
</svg>