<?xml version="1.0" encoding="UTF-8"?>
<svg width="20px" height="20px" viewBox="0 0 20 20" version="1.1" xmlns="http://www.w3.org/2000/svg" xmlns:xlink="http://www.w3.org/1999/xlink">
    <!-- Generator: Sketch 56.3 (81716) - https://sketch.com -->
    <desc>icon/20/关闭</desc>
    
    <g id="icon/20/关闭" stroke="none" stroke-width="1" fill-rule="evenodd">
        <g id="time-out" fill-rule="nonzero">
            <rect id="矩形" opacity="0" x="0" y="0" width="20" height="20"></rect>
            <path d="M10,1.25 C5.16796875,1.25 1.25,5.16796875 1.25,10 C1.25,14.8320312 5.16796875,18.75 10,18.75 C14.8320312,18.75 18.75,14.8320312 18.75,10 C18.75,5.16796875 14.8320312,1.25 10,1.25 Z M10,17.265625 C5.98828125,17.265625 2.734375,14.0117187 2.734375,10 C2.734375,5.98828125 5.98828125,2.734375 10,2.734375 C14.0117187,2.734375 17.265625,5.98828125 17.265625,10 C17.265625,14.0117187 14.0117187,17.265625 10,17.265625 Z M8.28125,6.875 L7.34375,6.875 C7.2578125,6.875 7.1875,6.9453125 7.1875,7.03125 L7.1875,12.96875 C7.1875,13.0546875 7.2578125,13.125 7.34375,13.125 L8.28125,13.125 C8.3671875,13.125 8.4375,13.0546875 8.4375,12.96875 L8.4375,7.03125 C8.4375,6.9453125 8.3671875,6.875 8.28125,6.875 Z M12.65625,6.875 L11.71875,6.875 C11.6328125,6.875 11.5625,6.9453125 11.5625,7.03125 L11.5625,12.96875 C11.5625,13.0546875 11.6328125,13.125 11.71875,13.125 L12.65625,13.125 C12.7421875,13.125 12.8125,13.0546875 12.8125,12.96875 L12.8125,7.03125 C12.8125,6.9453125 12.7421875,6.875 12.65625,6.875 Z" id="形状"></path>
        </g>
    </g>
</svg>