<?xml version="1.0" encoding="UTF-8"?>
<svg width="20px" height="20px" viewBox="0 0 20 20" version="1.1" xmlns="http://www.w3.org/2000/svg" xmlns:xlink="http://www.w3.org/1999/xlink">
    <!-- Generator: Sketch 56.3 (81716) - https://sketch.com -->
    <desc>icon/20/标签</desc>
    
    <g id="icon/20/标签" stroke="none" stroke-width="1" fill-rule="evenodd">
        <g id="tag" fill-rule="nonzero">
            <rect id="矩形" opacity="0" x="0" y="0" width="20" height="20"></rect>
            <path d="M18.3203125,8.9609375 L17.7421875,2.85546875 C17.7128906,2.5390625 17.4609375,2.2890625 17.1445313,2.2578125 L11.0390625,1.6796875 L11.03125,1.6796875 C10.96875,1.6796875 10.9199219,1.69921875 10.8828125,1.73632812 L1.73632813,10.8828125 C1.66015625,10.9589844 1.66015625,11.0820312 1.73632813,11.1582031 L8.84179688,18.2636719 C8.87890625,18.3007812 8.92773438,18.3203125 8.98046875,18.3203125 C9.03320313,18.3203125 9.08203125,18.3007812 9.11914063,18.2636719 L18.265625,9.1171875 C18.3046875,9.07617188 18.3242188,9.01953125 18.3203125,8.9609375 Z M8.97851562,16.3027344 L3.69726562,11.0214844 L11.5039062,3.21484375 L16.328125,3.671875 L16.7851562,8.49609375 L8.97851562,16.3027344 Z M13.28125,5 C12.3339844,5 11.5625,5.77148437 11.5625,6.71875 C11.5625,7.66601562 12.3339844,8.4375 13.28125,8.4375 C14.2285156,8.4375 15,7.66601562 15,6.71875 C15,5.77148437 14.2285156,5 13.28125,5 Z M13.28125,7.34375 C12.9355469,7.34375 12.65625,7.06445312 12.65625,6.71875 C12.65625,6.37304687 12.9355469,6.09375 13.28125,6.09375 C13.6269531,6.09375 13.90625,6.37304687 13.90625,6.71875 C13.90625,7.06445312 13.6269531,7.34375 13.28125,7.34375 Z" id="形状"></path>
        </g>
    </g>
</svg>