<?xml version="1.0" encoding="UTF-8"?>
<svg width="16px" height="16px" viewBox="0 0 16 16" version="1.1" xmlns="http://www.w3.org/2000/svg" xmlns:xlink="http://www.w3.org/1999/xlink">
    <!-- Generator: Sketch 56.3 (81716) - https://sketch.com -->
    <desc>icon/16/会员体系</desc>
    <g id="icon/16/会员体系" stroke="none" stroke-width="1" fill-rule="evenodd">
        <g id="编组">
            <rect id="矩形" opacity="0" x="0" y="0" width="16" height="16"></rect>
            <path d="M2,2.5 L14,2.5 C14.5522847,2.5 15,2.94771525 15,3.5 L15,12.5 C15,13.0522847 14.5522847,13.5 14,13.5 L2,13.5 C1.44771525,13.5 1,13.0522847 1,12.5 L1,3.5 C1,2.94771525 1.44771525,2.5 2,2.5 Z M2.2,3.7 L2.2,12.3 L13.8,12.3 L13.8,3.7 L2.2,3.7 Z M5.74090609,10.08 L4.66090609,10.08 C4.61290609,10.08 4.58890609,10.062 4.58290609,10.02 L4.00090609,6.072 C3.99490609,6.03 4.01890609,6 4.06690609,6 L5.16490609,6 C5.21290609,6 5.23690609,6.018 5.24290609,6.06 L5.46490609,8.34 L5.48290609,8.34 L6.47890609,6.06 C6.49690609,6.018 6.52090609,6 6.56290609,6 L7.75690609,6 C7.80490609,6 7.82890609,6.03 7.80490609,6.072 L5.83090609,10.02 C5.81290609,10.062 5.78890609,10.08 5.74090609,10.08 Z M7.35490609,10.02 L8.05690609,6.06 C8.06290609,6.024 8.08690609,6 8.12290609,6 L9.21490609,6 C9.25090609,6 9.27490609,6.024 9.26890609,6.06 L8.56690609,10.02 C8.56090609,10.056 8.53690609,10.08 8.50090609,10.08 L7.40890609,10.08 C7.37290609,10.08 7.34890609,10.056 7.35490609,10.02 Z M10.2289061,10.08 L9.13690609,10.08 C9.10690609,10.08 9.08290609,10.056 9.08890609,10.02 L9.79090609,6.06 C9.79690609,6.024 9.82090609,6 9.85090609,6 L11.4829061,6 C12.4189061,6 12.8269061,6.432 12.8269061,7.104 C12.8269061,8.16 12.0589061,8.796 10.9969061,8.796 L10.5469061,8.796 C10.5289061,8.796 10.5109061,8.808 10.5049061,8.832 L10.2949061,10.02 C10.2889061,10.056 10.2649061,10.08 10.2289061,10.08 Z M11.1049061,7.782 C11.3989061,7.782 11.5909061,7.608 11.5909061,7.302 C11.5909061,7.116 11.4769061,7.008 11.2429061,7.008 L10.8589061,7.008 C10.8409061,7.008 10.8229061,7.02 10.8229061,7.044 L10.6969061,7.746 C10.6969061,7.77 10.7029061,7.782 10.7209061,7.782 L11.1049061,7.782 Z" id="形状结合"></path>
        </g>
    </g>
</svg>