<?xml version="1.0" encoding="UTF-8"?>
<svg width="18px" height="18px" viewBox="0 0 18 18" version="1.1" xmlns="http://www.w3.org/2000/svg" xmlns:xlink="http://www.w3.org/1999/xlink">
    <!-- Generator: Sketch 60.1 (88133) - https://sketch.com -->
    <desc>小程序</desc>
    <g id="网页" stroke="none" stroke-width="1" fill-rule="evenodd">
        <g id="画板" transform="translate(-61.000000, -12.000000)" fill-rule="nonzero">
            <g id="小程序" transform="translate(61.000000, 12.000000)">
                <rect id="矩形" fill="#000000" opacity="0" x="0" y="0" width="18" height="18"></rect>
                <path d="M13.2331875,7.20256452 C13.2331875,7.56958439 13.1283247,7.92786569 12.9360762,8.25119271 C12.6477034,8.7230754 12.1845593,9.07261813 11.625291,9.23865093 C11.4767353,9.28234377 11.3631339,9.29982091 11.2582711,9.29982091 C11.0135912,9.29982091 10.8213427,9.1075724 10.8213427,8.86289249 C10.8213427,8.61821258 11.0135912,8.42596408 11.2582711,8.42596408 C11.2757482,8.42596408 11.3107025,8.42596408 11.3543953,8.40848694 C11.7301538,8.30362412 12.0272651,8.08515992 12.1932979,7.79678716 C12.3068993,7.61327723 12.3593307,7.41229016 12.3593307,7.20256452 C12.3593307,6.51221763 11.7214152,5.94421069 10.9436826,5.94421069 C10.672787,5.94421069 10.41063,6.01411923 10.1746886,6.14519776 C9.76397591,6.3811391 9.519296,6.77437467 9.519296,7.20256452 L9.519296,10.8640246 C9.519296,11.6068029 9.10858329,12.2884113 8.42697497,12.6729083 C8.0599551,12.8826339 7.64924239,12.9874967 7.22979111,12.9874967 C5.96269871,12.9874967 4.93154766,12.0349928 4.93154766,10.8552861 C4.93154766,10.4882662 5.03641048,10.1299849 5.22865898,9.80665787 C5.51703173,9.33477518 5.98017585,8.98523245 6.53944422,8.81919965 C6.69673845,8.77550681 6.80160127,8.75802967 6.90646409,8.75802967 C7.151144,8.75802967 7.3433925,8.95027817 7.3433925,9.19495809 C7.3433925,9.439638 7.151144,9.6318865 6.90646409,9.6318865 C6.88898695,9.6318865 6.85403268,9.6318865 6.81033984,9.64936364 C6.4345814,9.76296502 6.13747008,9.98142923 5.97143728,10.2610634 C5.85783589,10.4445733 5.80540448,10.6455604 5.80540448,10.8552861 C5.80540448,11.545633 6.44331997,12.1136399 7.22979111,12.1136399 C7.50068673,12.1136399 7.76284378,12.0437313 7.99878512,11.9126528 C8.40949783,11.6767115 8.65417774,11.2834759 8.65417774,10.8552861 L8.65417774,7.20256452 C8.65417774,6.45978622 9.06489045,5.77817789 9.74649878,5.39368089 C10.1047801,5.17521668 10.5154928,5.07035386 10.9349441,5.07035386 C12.2020365,5.07035386 13.2331875,6.0228578 13.2331875,7.20256452 Z M1,9 C1,13.42 4.58,17 9,17 C13.42,17 17,13.42 17,9 C17,4.58 13.42,1 9,1 C4.58,1 1,4.58 1,9 Z" id="形状"></path>
            </g>
        </g>
    </g>
</svg>