<?xml version="1.0" encoding="UTF-8"?>
<svg width="20px" height="20px" viewBox="0 0 20 20" version="1.1" xmlns="http://www.w3.org/2000/svg" xmlns:xlink="http://www.w3.org/1999/xlink">
    <!-- Generator: Sketch 56.3 (81716) - https://sketch.com -->
    <desc>icon/侧导航/粉丝</desc>
    
    <g id="icon/侧导航/粉丝" stroke="none" stroke-width="1" fill-rule="evenodd">
        <g id="smile" fill-rule="nonzero">
            <rect id="矩形" opacity="0" x="0" y="0" width="20" height="20"></rect>
            <path d="M5.625,8.22265625 C5.625,8.7404232 6.04473305,9.16015625 6.5625,9.16015625 C7.08026695,9.16015625 7.5,8.7404232 7.5,8.22265625 C7.5,7.7048893 7.08026695,7.28515625 6.5625,7.28515625 C6.04473305,7.28515625 5.625,7.7048893 5.625,8.22265625 L5.625,8.22265625 Z M12.5,8.22265625 C12.5,8.7404232 12.919733,9.16015625 13.4375,9.16015625 C13.955267,9.16015625 14.375,8.7404232 14.375,8.22265625 C14.375,7.7048893 13.955267,7.28515625 13.4375,7.28515625 C12.919733,7.28515625 12.5,7.7048893 12.5,8.22265625 L12.5,8.22265625 Z M10,1.25 C5.16796875,1.25 1.25,5.16796875 1.25,10 C1.25,14.8320312 5.16796875,18.75 10,18.75 C14.8320312,18.75 18.75,14.8320312 18.75,10 C18.75,5.16796875 14.8320312,1.25 10,1.25 Z M15.1367188,15.1367188 C14.46875,15.8046875 13.6914062,16.328125 12.8261719,16.6953125 C11.9335938,17.0742188 10.9824219,17.265625 10,17.265625 C9.01757812,17.265625 8.06640625,17.0742188 7.171875,16.6953125 C6.30664062,16.3300781 5.52929688,15.8046875 4.86132812,15.1367188 C4.19335938,14.46875 3.66992187,13.6914062 3.30273437,12.8261719 C2.92578125,11.9335938 2.734375,10.9824219 2.734375,10 C2.734375,9.01757812 2.92578125,8.06640625 3.3046875,7.171875 C3.66992187,6.30664062 4.1953125,5.52929688 4.86328125,4.86132812 C5.53125,4.19335938 6.30859375,3.66992187 7.17382812,3.30273437 C8.06640625,2.92578125 9.01757812,2.734375 10,2.734375 C10.9824219,2.734375 11.9335938,2.92578125 12.828125,3.3046875 C13.6933594,3.66992187 14.4707031,4.1953125 15.1386719,4.86328125 C15.8066406,5.53125 16.3300781,6.30859375 16.6972656,7.17382812 C17.0742188,8.06640625 17.265625,9.01757812 17.265625,10 C17.265625,10.9824219 17.0742188,11.9335938 16.6953125,12.828125 C16.3300781,13.6933594 15.8046875,14.4707031 15.1367188,15.1367188 Z M12.96875,10.4101562 L12.0292969,10.4101562 C11.9472656,10.4101562 11.8769531,10.4726562 11.8710938,10.5546875 C11.796875,11.5214844 10.9863281,12.2851562 10,12.2851562 C9.01367188,12.2851562 8.20117188,11.5214844 8.12890625,10.5546875 C8.12304688,10.4726562 8.05273438,10.4101562 7.97070312,10.4101562 L7.03125,10.4101562 C6.94140625,10.4101562 6.87109375,10.484375 6.875,10.5742188 C6.9609375,12.2207031 8.33007812,13.5351562 10,13.5351562 C11.6699219,13.5351562 13.0390625,12.2207031 13.125,10.5742188 C13.1289062,10.484375 13.0585938,10.4101562 12.96875,10.4101562 Z" id="形状" ></path>
        </g>
    </g>
</svg>