<?xml version="1.0" encoding="UTF-8"?>
<svg width="20px" height="20px" viewBox="0 0 20 20" version="1.1" xmlns="http://www.w3.org/2000/svg" xmlns:xlink="http://www.w3.org/1999/xlink">
    <!-- Generator: Sketch 56.3 (81716) - https://sketch.com -->
    <desc>icon/侧导航/会员列表</desc>
    
    <g id="icon/侧导航/会员列表" stroke="none" stroke-width="1" fill-rule="evenodd">
        <g id="solution" fill-rule="nonzero">
            <rect id="矩形" opacity="0" x="0" y="0" width="20" height="20"></rect>
            <path d="M13.4375,5.15625 C13.4375,5.0703125 13.3671875,5 13.28125,5 L5.78125,5 C5.6953125,5 5.625,5.0703125 5.625,5.15625 L5.625,6.09375 C5.625,6.1796875 5.6953125,6.25 5.78125,6.25 L13.28125,6.25 C13.3671875,6.25 13.4375,6.1796875 13.4375,6.09375 L13.4375,5.15625 Z M13.28125,7.8125 L5.78125,7.8125 C5.6953125,7.8125 5.625,7.8828125 5.625,7.96875 L5.625,8.90625 C5.625,8.9921875 5.6953125,9.0625 5.78125,9.0625 L13.28125,9.0625 C13.3671875,9.0625 13.4375,8.9921875 13.4375,8.90625 L13.4375,7.96875 C13.4375,7.8828125 13.3671875,7.8125 13.28125,7.8125 Z M9.375,10.625 L5.78125,10.625 C5.6953125,10.625 5.625,10.6953125 5.625,10.78125 L5.625,11.71875 C5.625,11.8046875 5.6953125,11.875 5.78125,11.875 L9.375,11.875 C9.4609375,11.875 9.53125,11.8046875 9.53125,11.71875 L9.53125,10.78125 C9.53125,10.6953125 9.4609375,10.625 9.375,10.625 Z M8.4375,16.640625 L4.0625,16.640625 L4.0625,2.890625 L15,2.890625 L15,9.609375 C15,9.6953125 15.0703125,9.765625 15.15625,9.765625 L16.25,9.765625 C16.3359375,9.765625 16.40625,9.6953125 16.40625,9.609375 L16.40625,2.109375 C16.40625,1.76367188 16.1269531,1.484375 15.78125,1.484375 L3.28125,1.484375 C2.93554688,1.484375 2.65625,1.76367188 2.65625,2.109375 L2.65625,17.421875 C2.65625,17.7675781 2.93554688,18.046875 3.28125,18.046875 L8.4375,18.046875 C8.5234375,18.046875 8.59375,17.9765625 8.59375,17.890625 L8.59375,16.796875 C8.59375,16.7109375 8.5234375,16.640625 8.4375,16.640625 Z M15.40625,15.1875 C15.9726562,14.6738281 16.328125,13.9316406 16.328125,13.1054688 C16.328125,11.5527344 15.0683594,10.2929688 13.515625,10.2929688 C11.9628906,10.2929688 10.703125,11.5527344 10.703125,13.1054688 C10.703125,13.9316406 11.0585938,14.6738281 11.625,15.1875 C10.5117188,15.8222656 9.74609375,16.9980469 9.6875,18.3535156 C9.68359375,18.4414062 9.75585938,18.515625 9.84375,18.515625 L10.7832031,18.515625 C10.8652344,18.515625 10.9335938,18.4511719 10.9394531,18.3671875 C11.015625,17.015625 12.1425781,15.9375 13.515625,15.9375 C14.8886719,15.9375 16.015625,17.015625 16.0917969,18.3671875 C16.0957031,18.4492188 16.1640625,18.515625 16.2480469,18.515625 L17.1875,18.515625 C17.2773438,18.515625 17.3476562,18.4414062 17.34375,18.3535156 C17.2871094,16.9960938 16.5195312,15.8222656 15.40625,15.1875 Z M13.515625,11.5429688 C14.3789062,11.5429688 15.078125,12.2421875 15.078125,13.1054688 C15.078125,13.96875 14.3789062,14.6679688 13.515625,14.6679688 C12.6523438,14.6679688 11.953125,13.96875 11.953125,13.1054688 C11.953125,12.2421875 12.6523438,11.5429688 13.515625,11.5429688 Z" id="形状"></path>
        </g>
    </g>
</svg>